<svg xmlns="http://www.w3.org/2000/svg" xmlns:xlink="http://www.w3.org/1999/xlink" width="512" height="512" viewBox="0 0 512 512">
  <defs>
    <clipPath id="clip-foreground">
      <rect width="512" height="512"/>
    </clipPath>
  </defs>
  <g id="foreground" clip-path="url(#clip-foreground)">
    <rect width="512" height="512" fill="rgba(255,255,255,0)"/>
    <path id="Path_5884" data-name="Path 5884" d="M229.64-75.488q-7.06-.243-14.729-.852t-18.138-.852a446.094,446.094,0,0,0-49.665,1.948q-6.086,20.937-20.085,51.491T99.391,27.981q-29.215,45.283-59.4,56a24.336,24.336,0,0,1-8.886,1.7A20.308,20.308,0,0,1,22.945,84.1a19.391,19.391,0,0,1-6.086-4.017q-5.113-4.626-5.113-10.225T15.4,61.579Q49.969,36.5,86.488-64.776l-5.356,1.461q-2.678.73-4.626,1.461a12.787,12.787,0,0,1-4.5.73,12.279,12.279,0,0,1-5.6-1.582,26.236,26.236,0,0,1-5.478-3.774q-5.356-4.869-5.356-9.495t4.261-8.643a56.644,56.644,0,0,1,10.59-7.669q11.686-6.817,29.458-12.66l13.147-40.9q23.128-71.82,44.309-99.574-19.964-1.7-29.458-1.7-28.728,0-41.388,8.034-12.416,8.034-17.407,17.407t-5.234,13.025q-.73,6.817-4.382,8.643a19.712,19.712,0,0,1-8.886,1.826q-5.234,0-10.834-3.774a31.722,31.722,0,0,1-9.251-9.617,39.53,39.53,0,0,1-6.086-26.9,51.752,51.752,0,0,1,9.86-25.807A68.982,68.982,0,0,1,53.621-281.94a82.423,82.423,0,0,1,43.7-12.66,390.512,390.512,0,0,1,43.579,2.313q20.572,2.313,41.023,5.234,54.291,7.3,69.142,7.3t22.033-1.7a37.648,37.648,0,0,0,12.295-5.113q5.113-3.408,7.182-4.5t6.7-1.1q7.3,0,6.33,11.077a47.406,47.406,0,0,1-5.356,18.99A39.416,39.416,0,0,1,288.8-249.073Q274.437-238.6,252.282-238.6t-53.8-2.922q-8.034,16.312-15.338,42.849l-22.4,80.341q22.885-3.652,34.936-3.652t19.842,2.435a48.107,48.107,0,0,1,13.877,6.817q14.121,9.495,13.877,23.372T229.64-75.488Z" transform="translate(97.396 360.823)" fill="#651fff"/>
  </g>
</svg>
